<svg width="32" height="32" viewBox="0 0 32 32" fill="none" xmlns="http://www.w3.org/2000/svg">
<path fill-rule="evenodd" clip-rule="evenodd" d="M1.5 12.632C1.5 8.0743 4.99727 3 10.456 3C12.9639 3 14.7817 4.02052 16 5.13149C17.2183 4.02052 19.0361 3 21.544 3C27.0027 3 30.5 8.0743 30.5 12.632C30.5 17.3966 27.5494 21.4876 24.4212 24.3203C22.8417 25.7505 21.1733 26.9013 19.7144 27.6996C18.9851 28.0987 18.2958 28.4165 17.6856 28.637C17.0954 28.8503 16.5058 29 16 29C15.4942 29 14.9046 28.8503 14.3144 28.637C13.7042 28.4165 13.0149 28.0987 12.2856 27.6996C10.8267 26.9013 9.15826 25.7505 7.57877 24.3203C4.4506 21.4876 1.5 17.3966 1.5 12.632ZM10.456 5C6.39206 5 3.5 8.86437 3.5 12.632C3.5 16.5687 5.96607 20.1618 8.92123 22.8377C10.3834 24.1618 11.9233 25.2215 13.2457 25.9451C13.9069 26.307 14.5015 26.578 14.9942 26.7561C15.5069 26.9414 15.8391 27 16 27C16.1609 27 16.4931 26.9414 17.0058 26.7561C17.4985 26.578 18.0931 26.307 18.7543 25.9451C20.0767 25.2215 21.6166 24.1618 23.0788 22.8377C26.0339 20.1618 28.5 16.5687 28.5 12.632C28.5 8.86437 25.6079 5 21.544 5C19.1955 5 17.664 6.15859 16.7603 7.21628C16.5703 7.43863 16.2925 7.56667 16 7.56667C15.7075 7.56667 15.4297 7.43863 15.2397 7.21628C14.336 6.15859 12.8045 5 10.456 5Z" fill="white"/>
</svg>
