<svg width="32" height="32" viewBox="0 0 32 32" fill="none" xmlns="http://www.w3.org/2000/svg">
<path fill-rule="evenodd" clip-rule="evenodd" d="M9.33341 13C8.41237 13 7.66675 13.7456 7.66675 14.6667V25.3333C7.66675 26.2544 8.41237 27 9.33341 27H22.6667C23.5878 27 24.3334 26.2544 24.3334 25.3333V14.6667C24.3334 13.7456 23.5878 13 22.6667 13H9.33341ZM5.66675 14.6667C5.66675 12.641 7.3078 11 9.33341 11H22.6667C24.6924 11 26.3334 12.641 26.3334 14.6667V25.3333C26.3334 27.359 24.6924 29 22.6667 29H9.33341C7.3078 29 5.66675 27.359 5.66675 25.3333V14.6667Z" fill="white"/>
<path fill-rule="evenodd" clip-rule="evenodd" d="M21.3334 8.33333C21.8857 8.33333 22.3334 8.78105 22.3334 9.33333V12C22.3334 12.5523 21.8857 13 21.3334 13C20.7811 13 20.3334 12.5523 20.3334 12V9.33333C20.3334 8.78105 20.7811 8.33333 21.3334 8.33333Z" fill="white"/>
<path fill-rule="evenodd" clip-rule="evenodd" d="M10.6667 8.33333C11.219 8.33333 11.6667 8.78105 11.6667 9.33333V12C11.6667 12.5523 11.219 13 10.6667 13C10.1145 13 9.66675 12.5523 9.66675 12V9.33333C9.66675 8.78105 10.1145 8.33333 10.6667 8.33333Z" fill="white"/>
<path fill-rule="evenodd" clip-rule="evenodd" d="M16.0001 5C13.607 5 11.6667 6.94028 11.6667 9.33333C11.6667 9.88562 11.219 10.3333 10.6667 10.3333C10.1145 10.3333 9.66675 9.88562 9.66675 9.33333C9.66675 5.83572 12.5025 3 16.0001 3C19.4977 3 22.3334 5.83572 22.3334 9.33333C22.3334 9.88562 21.8857 10.3333 21.3334 10.3333C20.7811 10.3333 20.3334 9.88562 20.3334 9.33333C20.3334 6.94028 18.3931 5 16.0001 5Z" fill="white"/>
<path fill-rule="evenodd" clip-rule="evenodd" d="M16.0001 17.6667C16.5524 17.6667 17.0001 18.1144 17.0001 18.6667V22.7867C17.0001 23.339 16.5524 23.7867 16.0001 23.7867C15.4478 23.7867 15.0001 23.339 15.0001 22.7867V18.6667C15.0001 18.1144 15.4478 17.6667 16.0001 17.6667Z" fill="white"/>
<path fill-rule="evenodd" clip-rule="evenodd" d="M15.9784 18.3423C15.9827 18.338 15.988 18.3355 15.988 18.3355L15.9784 18.3423ZM15.988 18.3355C15.991 18.3343 15.9951 18.3333 16.0001 18.3333L15.988 18.3355ZM16.0001 18.3333C16.005 18.3333 16.0092 18.3343 16.0121 18.3355L16.0001 18.3333ZM16.0121 18.3355C16.0121 18.3355 16.0175 18.338 16.0218 18.3423L16.0121 18.3355ZM16.0218 18.3423C16.0261 18.3466 16.0286 18.3519 16.0286 18.3519C16.0298 18.3549 16.0308 18.359 16.0308 18.364C16.0308 18.3689 16.0298 18.3731 16.0286 18.376C16.0286 18.376 16.0261 18.3814 16.0218 18.3857M14.5642 16.9281C15.3572 16.1351 16.643 16.1351 17.436 16.9281C18.229 17.7211 18.229 19.0069 17.436 19.7999C16.643 20.5929 15.3572 20.5929 14.5642 19.7999C13.7712 19.0069 13.7712 17.7211 14.5642 16.9281ZM15.9784 18.3857C15.9741 18.3814 15.9716 18.376 15.9716 18.376L15.9784 18.3857ZM15.9716 18.376C15.9704 18.3731 15.9694 18.3689 15.9694 18.364L15.9716 18.376ZM15.9694 18.364C15.9694 18.359 15.9704 18.3549 15.9716 18.3519L15.9694 18.364ZM15.9716 18.3519C15.9716 18.3519 15.9741 18.3466 15.9784 18.3423L15.9716 18.3519ZM16.0218 18.3857C16.0175 18.39 16.0121 18.3925 16.0121 18.3925L16.0218 18.3857ZM16.0121 18.3925C16.0092 18.3937 16.005 18.3947 16.0001 18.3947L16.0121 18.3925ZM16.0001 18.3947C15.9951 18.3947 15.991 18.3937 15.988 18.3925L16.0001 18.3947ZM15.988 18.3925C15.988 18.3925 15.9827 18.39 15.9784 18.3857L15.988 18.3925Z" fill="white"/>
</svg>
