<svg width="24" height="24" viewBox="0 0 24 24" fill="none" xmlns="http://www.w3.org/2000/svg">
<path d="M12.08 21.84C11.3258 21.8426 10.5983 21.5611 10.0424 21.0515C9.48645 20.5419 9.14285 19.8416 9.08 19.09H5.75C5.28587 19.09 4.84075 18.9056 4.51257 18.5774C4.18438 18.2492 4 17.8041 4 17.34V16.34C3.99918 15.655 4.2687 14.9974 4.75 14.51L5.46 13.8C5.57676 13.685 5.66957 13.5481 5.73308 13.397C5.79659 13.246 5.82953 13.0839 5.83 12.92V10.09C5.83045 8.96624 6.18542 7.87126 6.84435 6.96096C7.50329 6.05066 8.43261 5.37144 9.5 5.02V4.25C9.5 3.65326 9.73705 3.08097 10.159 2.65901C10.581 2.23705 11.1533 2 11.75 2H12.41C13.0067 2 13.579 2.23705 14.001 2.65901C14.4229 3.08097 14.66 3.65326 14.66 4.25V5.02C15.7274 5.37144 16.6567 6.05066 17.3157 6.96096C17.9746 7.87126 18.3295 8.96624 18.33 10.09V12.92C18.3291 13.0855 18.3614 13.2496 18.425 13.4024C18.4885 13.5553 18.582 13.6939 18.7 13.81L19.41 14.52C19.8913 15.0074 20.1608 15.665 20.16 16.35V17.35C20.16 17.8141 19.9756 18.2592 19.6474 18.5874C19.3192 18.9156 18.8741 19.1 18.41 19.1H15.08C15.0148 19.8498 14.6701 20.5476 14.1144 21.0552C13.5587 21.5627 12.8326 21.8428 12.08 21.84ZM10.57 19.09C10.6488 19.4288 10.8399 19.7309 11.1122 19.9472C11.3846 20.1635 11.7222 20.2813 12.07 20.2813C12.4178 20.2813 12.7554 20.1635 13.0278 19.9472C13.3001 19.7309 13.4912 19.4288 13.57 19.09H10.57ZM11.16 6.25C10.1433 6.25265 9.16915 6.65839 8.45117 7.37824C7.7332 8.09809 7.33 9.0733 7.33 10.09V12.92C7.33797 13.2909 7.27025 13.6596 7.13099 14.0034C6.99172 14.3473 6.78383 14.6592 6.52 14.92L5.81 15.63C5.61098 15.8369 5.49987 16.1129 5.5 16.4V17.4C5.5 17.4663 5.52634 17.5299 5.57323 17.5768C5.62011 17.6237 5.6837 17.65 5.75 17.65H18.41C18.4763 17.65 18.5399 17.6237 18.5868 17.5768C18.6337 17.5299 18.66 17.4663 18.66 17.4V16.4C18.6623 16.1125 18.5508 15.8357 18.35 15.63L17.64 14.92C17.3766 14.6588 17.1691 14.3469 17.0298 14.0031C16.8906 13.6593 16.8226 13.2908 16.83 12.92V10.09C16.83 9.0733 16.4268 8.09809 15.7088 7.37824C14.9909 6.65839 14.0167 6.25265 13 6.25H11.16ZM11.75 3.5C11.5511 3.5 11.3603 3.57902 11.2197 3.71967C11.079 3.86032 11 4.05109 11 4.25V4.76H13.16V4.25C13.16 4.05109 13.081 3.86032 12.9403 3.71967C12.7997 3.57902 12.6089 3.5 12.41 3.5H11.75Z" fill="black"/>
</svg>
