<svg width="32" height="32" viewBox="0 0 32 32" fill="none" xmlns="http://www.w3.org/2000/svg">
<path fill-rule="evenodd" clip-rule="evenodd" d="M3 6.66669C3 5.0104 4.34372 3.66669 6 3.66669H22.6667C23.219 3.66669 23.6667 4.1144 23.6667 4.66669C23.6667 5.21897 23.219 5.66669 22.6667 5.66669H6C5.44828 5.66669 5 6.11497 5 6.66669C5 7.2184 5.44828 7.66669 6 7.66669H24C26.0256 7.66669 27.6667 9.30773 27.6667 11.3334V14.558C28.4549 14.9326 29 15.7362 29 16.6667V19.3334C29 20.2638 28.4549 21.0674 27.6667 21.442V24.6667C27.6667 26.6923 26.0256 28.3334 24 28.3334H6.66667C4.64105 28.3334 3 26.6923 3 24.6667V6.66669ZM5 9.49584V24.6667C5 25.5877 5.74562 26.3334 6.66667 26.3334H24C24.921 26.3334 25.6667 25.5877 25.6667 24.6667V21.6667H24C21.9744 21.6667 20.3333 20.0256 20.3333 18C20.3333 15.9744 21.9744 14.3334 24 14.3334H25.6667V11.3334C25.6667 10.4123 24.921 9.66669 24 9.66669H6C5.6494 9.66669 5.31281 9.60648 5 9.49584ZM24 16.3334C23.079 16.3334 22.3333 17.079 22.3333 18C22.3333 18.9211 23.079 19.6667 24 19.6667H26.6667C26.8504 19.6667 27 19.5171 27 19.3334V16.6667C27 16.483 26.8504 16.3334 26.6667 16.3334H24Z" fill="white"/>
</svg>
