<svg width="32" height="32" viewBox="0 0 32 32" fill="none" xmlns="http://www.w3.org/2000/svg">
<path fill-rule="evenodd" clip-rule="evenodd" d="M24.1203 3.00404C24.5198 2.96681 24.9193 3.17386 25.1087 3.55466L26.2131 5.77515L28.4472 6.89222C28.8271 7.08214 29.0332 7.4812 28.9959 7.88007C28.9755 8.10496 28.8793 8.32426 28.7071 8.49642L24.9178 12.2858C24.7302 12.4733 24.4759 12.5786 24.2107 12.5786H20.8355L16.0804 17.3338C15.6899 17.7243 15.0568 17.7243 14.6662 17.3338C14.2757 16.9432 14.2757 16.3101 14.6662 15.9195L19.4213 11.1644V7.78931C19.4213 7.52409 19.5267 7.26974 19.7142 7.0822L23.5036 3.29287C23.6758 3.12062 23.8953 3.02434 24.1203 3.00404ZM23.9363 5.68856L21.4213 8.20352V10.5786H23.7965L26.3136 8.06148L25.0195 7.4144C24.8253 7.31732 24.668 7.15968 24.5713 6.96529L23.9363 5.68856ZM15.368 6.26398C9.64162 6.26398 5 10.9056 5 16.632C5 22.3582 9.6428 27 15.3693 27C21.0957 27 25.7373 22.3584 25.7373 16.632C25.7373 16.0797 26.185 15.632 26.7373 15.632C27.2896 15.632 27.7373 16.0797 27.7373 16.632C27.7373 23.4629 22.2003 29 15.3693 29C8.53854 29 3 23.4631 3 16.632C3 9.80103 8.53705 4.26398 15.368 4.26398C15.9203 4.26398 16.368 4.71169 16.368 5.26398C16.368 5.81626 15.9203 6.26398 15.368 6.26398ZM15.368 11.316C12.4323 11.316 10.052 13.6963 10.052 16.632C10.052 19.5677 12.4323 21.948 15.368 21.948C18.3037 21.948 20.684 19.5677 20.684 16.632C20.684 16.0797 21.1317 15.632 21.684 15.632C22.2363 15.632 22.684 16.0797 22.684 16.632C22.684 20.6723 19.4083 23.948 15.368 23.948C11.3277 23.948 8.052 20.6723 8.052 16.632C8.052 12.5917 11.3277 9.31598 15.368 9.31598C15.9203 9.31598 16.368 9.76369 16.368 10.316C16.368 10.8683 15.9203 11.316 15.368 11.316Z" fill="white"/>
</svg>
